# xmcd CD database file
#
# Track frame offsets:
#	150
#	39287
#	65970
#	90805
#	115757
#	138649
#	177092
#	205743
#	230563
#
# Disc length: 3575 seconds
#
# Revision: 0
# Processed by: cddbd v1.5PL3 Copyright (c) Steve Scherf et al.
# Submitted via: CDex 1.51
#
DISCID=740df509
DTITLE=Di Donna - Cystals
DYEAR=2000
DGENRE=New Age
TTITLE0=Rubi
TTITLE1=Opalo
TTITLE2=Topacio
TTITLE3=Cuarzo Rosa
TTITLE4=Agua Marina
TTITLE5=Zafiro
TTITLE6=Amatista
TTITLE7=Crystal Messenger
TTITLE8=Crystal Tales
EXTD=YEAR: 2000
EXTT0=
EXTT1=
EXTT2=
EXTT3=
EXTT4=
EXTT5=
EXTT6=
EXTT7=
EXTT8=
PLAYORDER=
